<svg xmlns="http://www.w3.org/2000/svg" viewBox="0 0 284.66 259.59"><g id="Capa_2" data-name="Capa 2"><g id="Capa_33" data-name="Capa 33"><path d="M274,89.33A12.54,12.54,0,0,1,271.53,97a10,10,0,0,1-5.89,3.75c-6.92,1.58-13.08-3.38-13.11-10.63-.06-15.6,0-31.2,0-46.81-.05-10.72-6.82-19.22-17-21.42a27.3,27.3,0,0,0-5.58-.45q-92.94,0-185.9,0c-15.25,0-22.18,11.12-22.18,27.75,0,36.89-.08,67.77-.08,102.86,0,16.76,7.07,27.61,22.53,27.62q45.6.06,91.21,0c6.55,0,10.63,3,11.9,8.53a10.58,10.58,0,0,1-8.85,12.68,26.71,26.71,0,0,1-3.47.18c-30.22,0-60.45-.18-90.67.07-22,.18-37.7-14.19-42.34-30.15A45.53,45.53,0,0,1,.12,158.63q-.21-58.18,0-116.36A42.61,42.61,0,0,1,41,.06c1.78-.07,3.57,0,5.35,0q91.74,0,183.49,0c19.61,0,35.78,11.28,41.72,29.13.31.95.58,1.93.82,2.91A56.2,56.2,0,0,1,274,45.54Z"/><path d="M83.08,100.41c.65-21.9,9.27-39.57,28.52-50.86,24.27-14.23,54.89-5.79,70.31,18.9a59.6,59.6,0,0,1,7.89,20,10.78,10.78,0,0,1-7.8,12.8,10.53,10.53,0,0,1-13-8.08c-1.49-6.24-3.79-12.05-7.87-17.06-13-15.92-35.07-16-48.19-.22-14.36,17.3-10.23,45.14,8.5,56.43a41,41,0,0,0,8.82,3.68c6.13,2,9.45,7.32,7.89,13.16s-7.33,9.26-13.6,7.46c-22.61-6.52-35.43-22-40.49-44.54a54.59,54.59,0,0,1-1-6.87C83,103.63,83.08,102,83.08,100.41Z"/><path d="M167.43,238.31c23.85-32.33,42.65-57.78,64.62-87.83,5.89-8.06,11.74-16.13,17.68-24.15a10.18,10.18,0,0,1,11.36-4c4.47,1.14,7.09,4.29,7.84,8.85.57,3.4-.8,6.23-2.76,8.91q-23.85,32.55-47.63,65.14-17.74,24.27-35.49,48.53c-5.16,7.42-12.22,6.74-16.35,3.69-3.26-2.4-6.56-7.51-1.67-15.26C165.53,241.39,166.23,239.94,167.43,238.31Z"/><path d="M184.64,173.74A26.7,26.7,0,1,1,211.31,147,26.69,26.69,0,0,1,184.64,173.74Zm13.9-26.39A14,14,0,0,0,185,133.21a13.85,13.85,0,1,0-.62,27.68A14,14,0,0,0,198.54,147.35Z"/><path d="M258,247.08a26.69,26.69,0,1,1,26.67-26.78A26.68,26.68,0,0,1,258,247.08Zm13.9-26.38a14,14,0,0,0-13.55-14.14,13.84,13.84,0,1,0-.61,27.67A14,14,0,0,0,271.89,220.7Z"/><path d="M52,110.64A10.66,10.66,0,1,1,62.61,99.85,10.65,10.65,0,0,1,52,110.64Z"/></g></g></svg>