<svg xmlns="http://www.w3.org/2000/svg" viewBox="0 0 155.85 190.61"><g id="Capa_2" data-name="Capa 2"><g id="Capa_42" data-name="Capa 42"><path d="M8.62,109.39q0-24,0-47.9c0-5.06,2.74-8.53,7.26-9.33A8.62,8.62,0,0,1,25.94,60c.06.74,0,1.49,0,2.23v93.55c0,10.37,7.07,17.43,17.46,17.43h69c10.38,0,17.45-7.06,17.46-17.43q0-47.17,0-94.36c0-4.87,2.61-8.35,6.86-9.23A8.53,8.53,0,0,1,147,59.28a17.79,17.79,0,0,1,.19,2.83q0,47,0,94c0,17.17-11.48,31-28.35,34a34,34,0,0,1-6.05.49q-34.9.06-69.8,0A34,34,0,0,1,8.63,156.26Q8.58,132.83,8.62,109.39Z"/><path d="M112.52,26h6.18c9.33,0,18.66-.05,28,0,6.33,0,10.49,5.42,8.77,11.17a8.64,8.64,0,0,1-7.55,6.14c-.47,0-.94,0-1.42,0H9.37C3.86,43.35,0,39.68,0,34.6S3.91,26,9.34,26c10.41,0,20.83,0,31.24,0h2.74V23.72c0-4.87,0-9.74,0-14.61.05-5.45,3.58-9.06,9-9.07Q77.91,0,103.47,0c5.46,0,9,3.61,9,9.05S112.52,20.15,112.52,26ZM60.7,25.82H95.11V17.48H60.7Z"/><path d="M52,108.09c0-10.07,0-20.15,0-30.22a8.6,8.6,0,0,1,16.44-3.5,11.35,11.35,0,0,1,.85,4.32q.09,29.61,0,59.22c0,5.52-3.72,9.41-8.79,9.35S52,143.33,52,137.91Q51.93,123,52,108.09Z"/><path d="M103.9,108.35c0,10.07,0,20.14,0,30.22a8.49,8.49,0,0,1-6.39,8.37,8.31,8.31,0,0,1-9.58-3.87,10.94,10.94,0,0,1-1.3-5q-.14-29.82,0-59.64c0-5.34,3.81-9.17,8.82-9.09s8.49,3.92,8.5,9.19Q103.92,93.44,103.9,108.35Z"/></g></g></svg>