<svg xmlns="http://www.w3.org/2000/svg" viewBox="0 0 182.86 146.21"><g id="Capa_2" data-name="Capa 2"><g id="Capa_41" data-name="Capa 41"><path d="M98,49.19V138a15,15,0,0,1-.14,2.85,6.51,6.51,0,0,1-12.9-1c0-.68,0-1.36,0-2q0-43,0-86.1c0-1.88-.37-2.76-2.3-3.47C71.06,44,64.68,32.35,66.94,20,69,8.56,79.51,0,91.42,0a25,25,0,0,1,9,48.27C99.7,48.57,98.93,48.84,98,49.19ZM79.53,25a11.9,11.9,0,1,0,12-11.86A11.85,11.85,0,0,0,79.53,25Z"/><path d="M164.46,119.4c0,6.68,0,13.28,0,19.87,0,4.89-4.37,8.08-8.72,6.51a6.51,6.51,0,0,1-4.32-6.3c0-5.91,0-11.83,0-17.74,0-.75,0-1.49-.42-1.78-3.3-2.08-7-3.74-9.83-6.29-14-12.4-9.33-35.45,8.26-41.67,1.56-.56,2-1.18,2-2.83-.06-20.6,0-41.2-.06-61.81,0-2.83.94-5.07,3.46-6.44a6.52,6.52,0,0,1,9.59,5.34c.06.68,0,1.36,0,2q0,30.39,0,60.79a2.47,2.47,0,0,0,2,2.86,24.82,24.82,0,0,1,.36,46.59Zm5.37-24.12a11.91,11.91,0,1,0-11.91,11.94A11.89,11.89,0,0,0,169.83,95.28Z"/><path d="M31.46,27.17c0,6.73,0,13.47,0,20.2a2,2,0,0,0,1.66,2.27,24.83,24.83,0,0,1,.12,46.94,2.25,2.25,0,0,0-1.78,2.61c.05,13.4,0,26.8,0,40.21a6.33,6.33,0,0,1-3.87,6.17,6.12,6.12,0,0,1-7-1.14,7,7,0,0,1-2.19-5.7c0-13.12,0-26.25.05-39.38a2.51,2.51,0,0,0-2-2.87,24.77,24.77,0,0,1-.11-46.61c1.77-.65,2.13-1.48,2.12-3.2q-.11-19.8,0-39.6C18.43,2.14,22.67-1,27.09.5a6.47,6.47,0,0,1,4.36,6.26C31.48,13.56,31.46,20.37,31.46,27.17ZM25.05,61.24A11.91,11.91,0,1,0,37,73.18,11.89,11.89,0,0,0,25.05,61.24Z"/></g></g></svg>