<svg xmlns="http://www.w3.org/2000/svg" viewBox="0 0 176.44 209.3"><defs><style>.cls-1{fill:#fff;}</style></defs><g id="Capa_2" data-name="Capa 2"><g id="Capa_35" data-name="Capa 35"><path class="cls-1" d="M116.79,84.36c6.62,3.52,13.66,6.54,19.91,10.72,22.46,15,35.41,36.2,39,63,.69,5.24,1.27,10.53.09,15.8-1.87,8.32-7.22,14.06-14,18.66-9.26,6.29-19.69,9.87-30.52,12.11-31.28,6.46-62.47,6.54-93.45-2-10.07-2.79-19.68-6.57-27.67-13.55C3.3,183.13-.23,175.78,0,166.5A88.46,88.46,0,0,1,58.16,85.58L60,84.87C45.8,73.19,39.19,58.39,41.66,40.15A44.94,44.94,0,0,1,59.12,10.06a47,47,0,1,1,57.67,74.3ZM91.85,195.3c4.07-.28,12-.62,19.82-1.44,11.28-1.17,22.34-3.43,32.88-7.78,5-2.06,9.71-4.56,13.58-8.42,3-3,4.73-6.58,4.32-10.94-.35-3.75-.58-7.52-1.19-11.23C154,111.51,107.37,83.58,65,97.85c-29.95,10.08-49.74,36.47-51.26,68a15.28,15.28,0,0,0,6,13.29c5.64,4.66,12.26,7.37,19.14,9.51C54.86,193.63,71.35,195.1,91.85,195.3ZM88,80.3A33.06,33.06,0,1,0,55,47.28,33.1,33.1,0,0,0,88,80.3Z"/></g></g></svg>