<svg xmlns="http://www.w3.org/2000/svg" viewBox="0 0 383.76 331.22"><defs><style>.cls-1{fill:#fff;}</style></defs><g id="Capa_2" data-name="Capa 2"><g id="Capa_1-2" data-name="Capa 1"><path class="cls-1" d="M363.1,42l-8.84-.09c-95.17-.89-190.34,0-285.51,0h-5c-1-6.54-1.8-12.82-2.8-19.08C58.79,9.58,53.72,0,34.36,0H17.5C5.5,0,0,3.27,0,12.31c0,8.48,6.85,11.63,17.5,11.63H29.31c4.79,0,8.27,4.47,8.92,9.12,2.35,17,4.22,30.09,6.59,47.12Q51,124.23,57.11,168.3c4.17,29.87,8.25,59.75,12.6,89.59,2.08,14.32,13,23.43,27.41,23.54,3.92,0,7.84,0,11.94,0l7,0a35.86,35.86,0,1,0,66.24.24H231.7a35.86,35.86,0,1,0,66.24-.23l11.23-.05c8.78,0,14.92.13,23.39,0,9.95,0,14.18-6.17,14.18-12.23,0-5.79-5.85-11.7-14.47-11.7H99.89c-4.15,0-6.13-1.45-6.55-4.09-1.29-8-1.88-12.44-2.94-19.87H324.48c15.08,0,25.24-8.17,28.42-22.92,9.18-42.61,17.88-85.33,27.41-127.86.52-2.35,1.88-8,2.62-11.1a27.7,27.7,0,0,0,.82-6C383.94,53.13,376,42.26,363.1,42Zm-214,265.32a12,12,0,1,1,12-12A12,12,0,0,1,149.09,307.32Zm115.77,0a12,12,0,1,1,12-12A12,12,0,0,1,264.86,307.32ZM358.05,72.38q-14.22,66.5-28.44,133c-.62,2.91-1.89,4.24-5,4.23q-117.71-.08-235.4-.05a2.49,2.49,0,0,1-2.46-2.14C80.35,161.57,74,116,67.6,70.16a3.78,3.78,0,0,1,3.74-4.31H352.77C358.77,65.85,359.31,66.47,358.05,72.38Z"/></g></g></svg>