<svg xmlns="http://www.w3.org/2000/svg" viewBox="0 0 133.66 158.56"><defs><style>.cls-1{fill:#f1972c;}</style></defs><g id="Capa_2" data-name="Capa 2"><g id="Capa_36" data-name="Capa 36"><path class="cls-1" d="M88.48,63.91c5,2.67,10.34,5,15.08,8.12,17,11.4,26.83,27.42,29.52,47.74.53,4,1,8,.07,12-1.41,6.3-5.47,10.65-10.6,14.14-7,4.77-14.92,7.48-23.12,9.18-23.7,4.89-47.33,4.95-70.8-1.55-7.63-2.12-14.91-5-21-10.27A20.9,20.9,0,0,1,0,126.14,67,67,0,0,1,44.06,64.83l1.42-.54C34.7,55.45,29.69,44.23,31.56,30.41A34.06,34.06,0,0,1,44.79,7.62,35.63,35.63,0,1,1,88.48,63.91ZM69.58,148c3.09-.22,9.07-.48,15-1.1A88.82,88.82,0,0,0,109.51,141a30.71,30.71,0,0,0,10.29-6.38,10,10,0,0,0,3.27-8.29c-.27-2.84-.44-5.69-.9-8.5-5.48-33.33-40.83-54.48-72.91-43.67a56.46,56.46,0,0,0-38.83,51.53,11.52,11.52,0,0,0,4.5,10.06c4.27,3.54,9.29,5.59,14.5,7.21C41.56,146.69,54.06,147.8,69.58,148ZM66.64,60.84a25,25,0,1,0-24.94-25A25.09,25.09,0,0,0,66.64,60.84Z"/></g></g></svg>