<svg xmlns="http://www.w3.org/2000/svg" viewBox="0 0 382.59 266.82"><defs><style>.cls-1{fill-rule:evenodd;}</style></defs><g id="Capa_2" data-name="Capa 2"><g id="Capa_32" data-name="Capa 32"><path d="M292.5,33.84c-1.06,0-6.07-.07-7.12-.08-76.67-.72-153.34,0-230,0H51.32c-.77-5.26-1.45-10.33-2.26-15.37C47.36,7.72,43.27,0,27.68,0H14.1C4.43,0,0,2.64,0,9.91c0,6.84,5.52,9.37,14.1,9.37h9.51c3.86,0,6.66,3.61,7.18,7.35,1.9,13.72,3.4,24.24,5.32,38q4.95,35.49,9.89,71c3.36,24.06,6.65,48.13,10.15,72.16,1.68,11.54,10.47,18.88,22.08,19,3.16,0,6.32,0,9.62,0l5.61,0a28.89,28.89,0,1,0,53.36.2h39.82a28.89,28.89,0,1,0,53.37-.19l9.05,0c7.07,0,12,.1,18.84,0,8,0,11.42-5,11.42-9.85,0-4.66-4.72-9.43-11.66-9.43H80.47c-3.34,0-4.94-1.17-5.28-3.29-1-6.43-1.51-10-2.37-16H261.39c12.14,0,20.33-6.58,22.89-18.46,7.4-34.32,14.4-68.74,22.08-103,.42-1.89,1.51-6.46,2.11-8.94a22,22,0,0,0,.66-4.84C309.29,42.8,302.87,34,292.5,33.84ZM120.1,247.56a9.64,9.64,0,1,1,9.64-9.64A9.64,9.64,0,0,1,120.1,247.56Zm93.26,0a9.64,9.64,0,1,1,9.64-9.64A9.64,9.64,0,0,1,213.36,247.56ZM288.43,58.3Q277,111.88,265.52,165.45c-.5,2.34-1.52,3.41-4,3.41q-94.81-.08-189.62,0a2,2,0,0,1-2-1.73C64.73,130.15,59.61,93.47,54.45,56.52a3.05,3.05,0,0,1,3-3.47h226.7C289,53.05,289.44,53.55,288.43,58.3Z"/><path class="cls-1" d="M371.41,184.54a11.08,11.08,0,0,1,11.18,11.12A11.34,11.34,0,0,1,371.36,207l-27.14.19L344,234.32a11.25,11.25,0,0,1-11.29,11.1,11.06,11.06,0,0,1-11.11-11.13l.19-27-27,.19a11.07,11.07,0,0,1-11.18-11.12,11.34,11.34,0,0,1,11.23-11.29l27.14-.19.19-27.17a11.25,11.25,0,0,1,11.29-11.1,11.06,11.06,0,0,1,11.1,11.13l-.18,27,27-.19Z"/></g></g></svg>