<svg xmlns="http://www.w3.org/2000/svg" viewBox="0 0 155.31 155.56"><g id="Capa_2" data-name="Capa 2"><g id="Capa_40" data-name="Capa 40"><path d="M155.08,121.91a24.38,24.38,0,0,1-.23,2.7,36.8,36.8,0,0,1-3.45,10.78c-2,4-5.22,4.5-8.36,1.37q-7.78-7.77-15.55-15.55c-2.55-2.55-5.26-2.87-7.28-.86s-1.72,4.73.83,7.28c5.28,5.3,10.59,10.57,15.86,15.88,2.61,2.64,2.16,6-1,7.71-12.89,7-29.8,5.24-40.66-4.51S80.69,125,83.56,110.82a2.19,2.19,0,0,0-.2-1.52,35.1,35.1,0,0,0-2.27-2.75c-1.08,1.1-1.17,1.16-1.6,1.59q-16,16-32.06,32.06c-3.22,3.21-6.3,6.59-9.74,9.55-6.88,5.92-14.78,7.38-23.12,4.1A22.92,22.92,0,0,1,.46,136.92c-1.61-8.42,1.16-15.31,6.85-21q20-20,40-40c.42-.42.56-.52,1.31-1.35-.6-.67-.91-1-1.47-1.6A3.3,3.3,0,0,0,44,72a33.55,33.55,0,0,1-11.77.67C6.52,69.26-7.26,42.88,3.91,20.22c2-4,5.22-4.49,8.37-1.35L27.82,34.42a12.93,12.93,0,0,0,1.34,1.23,4.46,4.46,0,0,0,5.12.25,4.08,4.08,0,0,0,2-4.53,6.83,6.83,0,0,0-1.77-3.06c-5.34-5.45-10.78-10.8-16.16-16.23-2.69-2.71-2.13-6.17,1.3-7.8a48,48,0,0,1,6.61-2.6A38.84,38.84,0,0,1,33.35.14a32.39,32.39,0,0,1,6.07,0c1.15.1,2.27.4,3.41.6A36,36,0,0,1,72.26,41.27c-.52,3.62.14,5.78,2.76,8.26,3.07,2.92,3.84,3.81,5.61,5.61l25-25c-.78-.73-1.69-1.53-2.54-2.39a5,5,0,0,1,1.1-8.15Q119,10.75,133.84,1.91a7.13,7.13,0,0,1,8.47.84l.24.22q5.1,4.95,10,10a23.48,23.48,0,0,1,2,2.59,3.73,3.73,0,0,1,.68,1.88h0a3.7,3.7,0,0,1-.42,2c-.78,1.45-1.82,3.43-2.57,4.64-6.7,10.88-7,11.4-15.07,23.9-3.73,5.81-5.77,8.08-9.26,4.72-1-.93-1.87-2-2.64-2.78L100.42,74.86c2.8,2.8,5.71,5.74,8.68,8.62a2.12,2.12,0,0,0,1.5.27c2.05-.26,4.08-.72,6.13-.88,15.75-1.28,31.37,8.94,36.42,23.92a51.92,51.92,0,0,1,1.52,6.2,27.06,27.06,0,0,1,.51,6.35Zm-145-92.33C6.88,39.89,11.59,52.76,20.53,58.7c7.43,4.95,15.41,6.3,24,3.71a6.06,6.06,0,0,1,6.69,1.75q19.86,20,39.89,39.89c2.17,2.15,2.84,4.29,1.88,7.2a24.39,24.39,0,0,0-.4,14.35c3.06,11.14,10.29,18,21.67,20.35a24.15,24.15,0,0,0,11.69-.59c-3.91-3.9-7.7-7.6-11.38-11.41a20.11,20.11,0,0,1-3.25-4.33,13.38,13.38,0,0,1,3.49-16.56c5-4,12.23-4.31,16.9-.19,4.28,3.78,8.21,7.94,12.26,12,.39.38.23.2,1,1,3.81-10.12-1.24-23-10.24-29-7.46-4.92-15.43-6.25-24-3.64a5.94,5.94,0,0,1-6.55-1.74q-19.87-20-39.91-39.88c-2.22-2.2-2.86-4.37-1.88-7.33a25,25,0,0,0,.36-14.35A26.53,26.53,0,0,0,47.34,11.55a26.07,26.07,0,0,0-17.92-1.33c.48.51.85.91,1.23,1.29,4,4.08,8.16,8,12,12.27s3.86,11.07.64,15.84a13.74,13.74,0,0,1-14.9,5.56A15.24,15.24,0,0,1,21.58,41Zm64.11,71L54.77,81.16c-.56.64-.86.93-1.25,1.32C40.3,95.71,27.38,108.77,14.16,122a31.88,31.88,0,0,0-2.32,2.6c-5.51,6.9-2.19,18.07,6.2,20.86,5.78,1.93,10.73.52,15-3.72l36.67-36.67C71.22,103.54,72.79,102,74.23,100.62ZM144.9,18.48,137,10.55,113.37,24.72l17.38,17.35ZM118.26,43.31l-6-6L87.82,61.71l6,6Z"/><path d="M59.09,97.17a4.55,4.55,0,0,1,.64,5.53,4.93,4.93,0,0,1-.81,1.13q-13.65,13.78-27.41,27.45a4.53,4.53,0,0,1-6.52.23c-2.35-2.27-1-5,2-8,9.63-9.63,15.36-15.42,24.16-24.22,2.46-2.46,4-4.09,6.61-3A4.42,4.42,0,0,1,59.09,97.17Z"/></g></g></svg>