<svg xmlns="http://www.w3.org/2000/svg" viewBox="0 0 308.22 308.22"><defs><style>.cls-1{fill:#d8dce3;}.cls-2{fill:#fff;}</style></defs><g id="Capa_2" data-name="Capa 2"><g id="Capa_35" data-name="Capa 35"><circle class="cls-1" cx="154.11" cy="154.11" r="154.11"/><path class="cls-2" d="M175.76,138.74c5,2.67,10.34,4.95,15.08,8.12,17,11.4,26.83,27.42,29.52,47.74.53,4,1,8,.07,12-1.41,6.3-5.47,10.65-10.6,14.13-7,4.77-14.92,7.48-23.12,9.18-23.7,4.89-47.33,5-70.8-1.55-7.63-2.11-14.91-5-21-10.26A20.92,20.92,0,0,1,87.29,201a67,67,0,0,1,44.05-61.31l1.42-.54C122,130.28,117,119.06,118.84,105.25a34.06,34.06,0,0,1,13.23-22.8,35.63,35.63,0,1,1,43.69,56.29Zm-18.9,84c3.09-.22,9.07-.48,15-1.09a89.18,89.18,0,0,0,24.91-5.9,30.71,30.71,0,0,0,10.29-6.38,10,10,0,0,0,3.27-8.29c-.27-2.83-.44-5.69-.9-8.5C204,159.3,168.62,138.15,136.54,149a56.47,56.47,0,0,0-38.83,51.53,11.55,11.55,0,0,0,4.5,10.07c4.27,3.53,9.29,5.59,14.5,7.2C128.84,221.52,141.34,222.63,156.86,222.79Zm-2.94-87.12a25,25,0,1,0-24.94-25A25.09,25.09,0,0,0,153.92,135.67Z"/></g></g></svg>