<svg xmlns="http://www.w3.org/2000/svg" viewBox="0 0 153.03 152.95"><g id="Capa_2" data-name="Capa 2"><g id="Capa_39" data-name="Capa 39"><path d="M0,76.48v-48C0,12.2,12.23,0,28.57,0Q45.51,0,62.44,0A6.92,6.92,0,0,1,69.3,5.28a6.6,6.6,0,0,1-3.07,7.47,10,10,0,0,1-4.53,1.1c-10.93.1-21.86.05-32.79.05-9.24,0-15,5.78-15,15.06q0,47.54,0,95.08c0,9.11,5.8,14.93,14.9,14.93,11.15,0,22.29,0,33.44,0A6.88,6.88,0,0,1,69,143.47c1,2.78.56,5.44-1.68,7.32a8.44,8.44,0,0,1-4.83,2c-12,.17-24,.28-36,0C12.17,152.54.07,139.93,0,125.54,0,109.19,0,92.84,0,76.48Z"/><path d="M129.21,69.49c-7.76-7.75-15.06-15.08-22.4-22.36-1.94-1.92-3-4.12-2.39-6.84a6.91,6.91,0,0,1,11.23-3.9c1.06.88,2,1.91,3,2.88l32.14,32a7,7,0,0,1,.08,10.23q-17.13,17.1-34.3,34.16c-4.21,4.18-10.6,2.69-12-2.76-.72-2.79.22-5.08,2.22-7.07q10.32-10.26,20.58-20.56c.49-.5.95-1,1.76-1.89h-2.69q-38.52,0-77.06,0c-5.4,0-8.89-4.5-7.19-9.22a6.74,6.74,0,0,1,6-4.64,19.61,19.61,0,0,1,2.17,0h78.92Z"/></g></g></svg>