<svg xmlns="http://www.w3.org/2000/svg" viewBox="0 0 157.28 157.93"><g id="Capa_2" data-name="Capa 2"><g id="Capa_38" data-name="Capa 38"><path d="M157.22,108.45c.42,9.47-1.26,18.51-6.06,26.41a47.4,47.4,0,0,1-26.9,21,64,64,0,0,1-6.28,1.4,40.44,40.44,0,0,1-8.44.64l-2.56-.09a31.25,31.25,0,0,1-3.35-.24A48.55,48.55,0,0,1,85,150.9a5.9,5.9,0,0,0-3-.84q-33.79-.08-67.58,0C6.05,150,0,144.05,0,135.69Q0,75,0,14.24A14.24,14.24,0,0,1,14.24,0Q75,0,135.69,0a16,16,0,0,1,4,.48C145.89,2.09,150,7.58,150,14.32q0,33.86,0,67.72a5.84,5.84,0,0,0,.83,2.93l.08.13a44.52,44.52,0,0,1,6,19.19Zm-85.61,1.68a38.58,38.58,0,1,0,38.65-38.51A38.66,38.66,0,0,0,71.61,110.13ZM70.3,9.26H14.66c-3.6,0-5.39,1.8-5.4,5.41V70.31h61Zm70.45,63.81V14.67c0-3.61-1.8-5.41-5.4-5.41H79.75V73C100.09,58.68,120.32,58.68,140.75,73.07Zm-67.43,67.7c-.42-.59-.64-.91-.88-1.23a47.48,47.48,0,0,1-3.19-53.95c1.19-2,1.14-3.8,1.06-5.84h-61v55.48c0,3.8,1.75,5.53,5.58,5.53H73.32Z"/><path d="M110.2,107.12c-3.44,0-6.88,0-10.32,0-3,0-5.09-1.89-5.12-4.58s2.09-4.67,5.18-4.67q10.25,0,20.48,0c3.11,0,5.22,1.91,5.2,4.66s-2.12,4.59-5.25,4.6Z"/><path d="M110,122.55c-3.39,0-6.77,0-10.16,0-3,0-5.08-1.9-5.11-4.59s2.08-4.66,5-4.66q10.4,0,20.79,0c3,0,5,2,5,4.66a4.67,4.67,0,0,1-5,4.59C117.12,122.57,113.58,122.55,110,122.55Z"/><path d="M35.19,44.45c-2.08,0-4,0-5.87,0a4.63,4.63,0,1,1,0-9.25c1.9,0,3.79,0,5.88,0,0-1.93,0-3.76,0-5.59,0-3.12,1.91-5.23,4.66-5.21s4.59,2.13,4.6,5.27v5.53c2,0,3.9,0,5.79,0,3,0,5,2,5,4.69s-2.11,4.53-5,4.56c-1.75,0-3.5,0-5.25,0-.1,0-.2,0-.55.08,0,2,0,4,0,6.05a4.58,4.58,0,0,1-6.65,4.16,4.48,4.48,0,0,1-2.59-4.23C35.17,48.57,35.19,46.62,35.19,44.45Z"/><path d="M110.32,44.45c-3,0-6.06,0-9.09,0a4.63,4.63,0,1,1,0-9.25q9,0,18,0a4.63,4.63,0,1,1,0,9.25C116.27,44.48,113.29,44.45,110.32,44.45Z"/><path d="M46.51,110.49c1.22,1.17,2.51,2.36,3.74,3.59,2.33,2.33,2.54,5.1.57,7.09s-4.77,1.81-7.08-.49c-1.27-1.27-2.52-2.55-4-4-1.25,1.28-2.37,2.47-3.52,3.62-2.64,2.64-5.33,3-7.41.9s-1.8-4.82.82-7.41c1.16-1.15,2.39-2.24,3.86-3.62-1.6-1.49-3-2.74-4.36-4.08-2.14-2.13-2.26-4.93-.37-6.86s4.73-1.84,6.86.28c1.34,1.33,2.61,2.75,4.17,4.41,1.5-1.61,2.75-3,4.08-4.36,2.13-2.15,4.93-2.27,6.86-.38s1.83,4.71-.26,6.87c-1.29,1.34-2.59,2.65-3.89,4A2.93,2.93,0,0,0,46.51,110.49Z"/></g></g></svg>