<svg xmlns="http://www.w3.org/2000/svg" viewBox="0 0 217.46 262.4"><g id="Capa_2" data-name="Capa 2"><g id="Capa_44" data-name="Capa 44"><path d="M169.44,261.44a18.55,18.55,0,0,1-5.86,1H14.91c-13,0-14.86-9-14.86-21.88V78.91C.05,69.44-.09,60,.1,50.48c.16-7.73,4-13.31,11.18-16.24A22.85,22.85,0,0,1,19,32.92c5.51-.19,11-.05,16.78-.05,0-2.61-.12-4.9,0-7.18a36.65,36.65,0,0,1,1-7.57C39.72,7.81,49.59.41,60.71.13,66.77,0,72.83.08,78.9.08,116,.08,153,.23,190.06,0c14.84-.09,27.76,10.76,27.39,27.22-.52,23.37-.13,46.77-.13,70.17q0,53.27,0,106.54a24.22,24.22,0,0,1-7.78,18.53,26,26,0,0,1-17.63,7.11c-3.38.1-6.76,0-10.4,0,0,5.45.11,10.56,0,15.66a17.46,17.46,0,0,1-12,16.18Zm-4.27-113.8V53.12c0-3.86,0-3.86-3.75-3.86H20.25c-3.8,0-3.8,0-3.8,3.83v189c0,3.86,0,3.86,3.77,3.86H161.39c3.77,0,3.78,0,3.78-3.83ZM52.26,32.87h3.37q53.67,0,107.34,0c6,0,11,2.12,14.78,6.81,3,3.7,3.85,8,3.85,12.69q-.07,78.77,0,157.52v3.34h8.08c.85,0,1.71,0,2.56,0,5.29-.43,8.71-4,8.71-9.16q0-89.25,0-178.52c0-3.88-1.75-6.62-5.24-8a16.71,16.71,0,0,0-6-1q-63.15-.07-126.3,0c-.94,0-1.88,0-2.81.06-4.46.45-8.08,3.55-8.32,7.35C52.11,26.76,52.26,29.65,52.26,32.87Z"/><path d="M92.28,94.35h37.91c5.47,0,9.19,3.31,9.23,8.13s-3.69,8.26-9.09,8.26q-38,0-76.08,0c-5.4,0-9.13-3.43-9.1-8.27s3.74-8.11,9.22-8.12Z"/><path d="M92.55,127.14q18.83,0,37.65,0c5.46,0,9.19,3.31,9.22,8.14s-3.7,8.25-9.1,8.25H54.24c-5.4,0-9.13-3.43-9.09-8.27s3.74-8.11,9.23-8.12Q73.46,127.13,92.55,127.14Z"/><path d="M92.3,176.32q-19,0-37.92,0c-5.46,0-9.19-3.31-9.23-8.13s3.67-8.26,9.08-8.26q38.18,0,76.34,0c4.33,0,7.38,2.18,8.52,6a7.65,7.65,0,0,1-3.33,8.9,11.92,11.92,0,0,1-5.55,1.45C117.57,176.38,104.93,176.32,92.3,176.32Z"/></g></g></svg>