<svg xmlns="http://www.w3.org/2000/svg" viewBox="0 0 153.96 153.39"><g id="Capa_2" data-name="Capa 2"><g id="Capa_37" data-name="Capa 37"><path d="M154,76.48a5.35,5.35,0,0,1-2.9,5.1c-2.24,1.36-5.14,1-7.57-1.36-.3-.29-.63-.55-1.16-1v2q0,32.66,0,65.31a6.79,6.79,0,0,1-6.8,6.8H18.18a7.45,7.45,0,0,1-1.33-.1c-3.22-.61-5-3-5-6.75V79.16c-.79.73-1.31,1.25-1.87,1.71A6,6,0,0,1,.11,77.41c-.47-2.45.61-4.33,2.32-6Q37,36.82,71.64,2.25l0,0a7.71,7.71,0,0,1,10.78,0l0,0c22.92,22.84,45.15,45.09,68.65,68.64C154,73.74,153.94,75,154,76.48Zm-23.67,64.8v-1.83q0-35.43,0-70.87a3.52,3.52,0,0,0-1.17-2.74Q103.69,40.43,78.27,15c-.38-.38-.77-.74-1.19-1.13-.33.31-.56.5-.76.71Q50.51,40.37,24.74,66.21a3.39,3.39,0,0,0-.84,2.22q-.06,35.59,0,71.18v1.63H47.35v-1.91c0-12.75.07-25.49,0-38.23,0-4.12,2.43-7.18,7.12-7.14,15.1.14,30.2.05,45.3.05,4.8,0,7.07,2.28,7.07,7.1q0,19.19,0,38.37v1.8Zm-70.83,0H94.67V106.17H59.46Z"/></g></g></svg>