<svg xmlns="http://www.w3.org/2000/svg" viewBox="0 0 197.16 268.58"><defs><style>.cls-1{fill:#f1972c;}</style></defs><g id="Capa_2" data-name="Capa 2"><g id="Capa_45" data-name="Capa 45"><path class="cls-1" d="M30.9,268.58a39.65,39.65,0,0,1-15.51-3.05,23.83,23.83,0,0,1-3.78-2C3.84,258.45.13,250.74.1,241.49,0,211.76-.07,182,.12,152.3c.1-15.63,11.84-27,27.5-27q70.95-.07,141.91,0c15.69,0,27.37,11.29,27.49,27q.31,44.58,0,89.18c-.08,13.82-8.92,24-22.48,26.68h0c-.93.19-5.28.41-6.22.41ZM98.72,143.16v.06h-70C21.36,143.22,18,146.61,18,154q0,43,0,86c0,7.34,3.41,10.74,10.74,10.74H168.48c7.31,0,10.71-3.42,10.71-10.78q0-43,0-86c0-7.39-3.36-10.76-10.71-10.76Z"/><path class="cls-1" d="M35.71,78.27c.29-8.12,0-16.3,1-24.34C39.74,27.6,61.18,5.39,87.26,1c34.73-5.89,66.25,15.81,73,50.34a62.83,62.83,0,0,1,1,11.21c.13,11.71.11,23.43,0,35.14,0,7-5.76,11.33-11.89,9.26-3.84-1.31-6.08-4.71-6.09-9.43,0-11.72.08-23.44,0-35.15a44.5,44.5,0,0,0-29.19-41.77C85.91,9.87,54.62,30.77,54,60.85c-.28,12.68,0,25.36-.07,38a9,9,0,0,1-6.1,8.88c-3.56,1.22-7.77.19-9.83-3a12.39,12.39,0,0,1-1.9-6.06Z"/><path class="cls-1" d="M89.62,197.35c0-3-.05-5.95,0-8.92a8.92,8.92,0,0,1,17.82-.12q.17,8.91,0,17.83A8.91,8.91,0,1,1,89.63,206C89.57,203.11,89.62,200.23,89.62,197.35Z"/></g></g></svg>