<svg xmlns="http://www.w3.org/2000/svg" viewBox="0 0 249.45 249.4"><defs><style>.cls-1{fill:#f1972c;}</style></defs><g id="Capa_2" data-name="Capa 2"><g id="Capa_43" data-name="Capa 43"><path class="cls-1" d="M101.18,207.12a36.67,36.67,0,0,1-2.87,3.76q-15.09,15-30.27,30c-11.55,11.42-26.75,11.39-38.23-.09Q19.15,230.12,8.5,219.46C-2.82,208.1-2.84,193,8.47,181.69Q24.15,166,39.88,150.28c.6-.6,1.18-1.23,1.93-2-6.05-4.45-12-8.74-17.86-13.16-5.7-4.29-8.16-10.05-6.73-17.09S23,106.61,29.81,105c21.29-5,42.61-9.88,63.92-14.8Q129.48,82,165.24,73.7c7.14-1.64,12.2,3.39,10.56,10.51q-15.47,67.24-31,134.46c-1.67,7.25-6,12.12-13.31,13.62s-13.36-1.34-17.73-7.52C109.8,219.13,105.75,213.52,101.18,207.12Zm26.9,8.94c9.63-41.41,19.1-82.16,28.68-123.37L33.69,121.08c3.28,2.46,6.09,4.58,8.92,6.69s5.87,4.29,8.73,6.53c8.92,6.93,9.74,18.17,1.79,26.23C42.11,171.68,31,182.7,19.9,193.79c-4.42,4.44-4.38,9.16.06,13.61q10.92,10.95,21.85,21.87c4.9,4.89,9.41,4.86,14.36-.08Q72.34,213,88.51,196.88c8.87-8.82,20.23-7.81,27.52,2.37Z"/><path class="cls-1" d="M182.14,21.2c0,4.16.12,8.32,0,12.47a8.26,8.26,0,0,1-16.52-.11c-.13-8.4-.11-16.8,0-25.2A8.22,8.22,0,0,1,181.45,5.2a14.27,14.27,0,0,1,.69,4.57c.09,3.81,0,7.62,0,11.43Z"/><path class="cls-1" d="M152.82,45.81c-.56,3.54-2,6-5,7.47-3.17,1.49-6.45,1.32-9-1.11q-9.66-9.24-18.92-18.9A8.1,8.1,0,0,1,120.39,22c3-2.93,8-3.3,11.09-.35q9.65,9.25,18.89,18.94C151.63,41.9,152,44,152.82,45.81Z"/><path class="cls-1" d="M204.7,97c1,.51,3.16,1.13,4.62,2.53,6.08,5.79,12,11.77,17.86,17.77a8.28,8.28,0,1,1-11.63,11.78c-6.06-5.93-12.05-12-18-18a7.82,7.82,0,0,1-1.61-9.13C197.35,98.66,200,97.11,204.7,97Z"/><path class="cls-1" d="M228.57,67.36c4.07,0,8.14,0,12.21,0,5,.09,8.59,3.5,8.67,8.12a8.17,8.17,0,0,1-8.36,8.42q-12.6.25-25.19,0a8.17,8.17,0,0,1-8.28-8.49c.15-4.67,3.69-8,8.74-8C220.43,67.32,224.5,67.36,228.57,67.36Z"/><path class="cls-1" d="M204.8,54.15c-4.39-.11-7-1.57-8.51-4.63s-1.39-6.41,1-8.94Q206.46,31,216,21.87a8,8,0,0,1,11.25.46c3,3,3.39,8,.43,11.06-6.14,6.44-12.47,12.7-18.89,18.86C207.58,53.41,205.62,53.78,204.8,54.15Z"/></g></g></svg>